<svg width="336" height="337" viewBox="0 0 336 337" fill="none" xmlns="http://www.w3.org/2000/svg">
<circle cx="310" cy="311" r="26" fill="#BDE64E"/>
<path d="M32 134.668V308.668H64V133.668H110.594H161.668C186.168 133.668 186.168 162 186.168 169.668C184.284 205.091 150.005 204.834 130.154 204.686C128.934 204.677 127.769 204.668 126.668 204.668V236.668L222.668 336.668H271.668L168.668 234.668C207.068 222.668 217.332 186.5 217.668 169.668C218.552 125.5 181.168 102.668 161.668 102.668H110.594H64C55.6 31.8679 105.167 26.5013 131 32.668V0.667974C42.6 -7.73199 28.1666 65.168 32 102.668H0V134.668H32Z" fill="url(#paint0_linear_5_25)"/>
<defs>
<linearGradient id="paint0_linear_5_25" x1="-129.667" y1="-182.916" x2="277.581" y2="-3.76118" gradientUnits="userSpaceOnUse">
<stop offset="0.58818" stop-color="#1246A2"/>
<stop offset="0.776368" stop-color="#BDE64E"/>
</linearGradient>
</defs>
</svg>
